<?xml version="1.0" standalone="no"?>
<!DOCTYPE svg PUBLIC "-//W3C//DTD SVG 20010904//EN"
 "http://www.w3.org/TR/2001/REC-SVG-20010904/DTD/svg10.dtd">
<svg version="1.0" xmlns="http://www.w3.org/2000/svg"
 width="64.000000pt" height="64.000000pt" viewBox="0 0 900.000000 900.000000"
 preserveAspectRatio="xMidYMid meet">
<metadata>
Created by potrace 1.10, written by Peter Selinger 2001-2011
</metadata>
<g transform="translate(0.000000,900.000000) scale(0.100000,-0.100000)"
fill="#000000" stroke="none">
<path d="M4230 7349 c-22 -9 -74 -19 -195 -36 -22 -3 -47 -11 -55 -18 -8 -7
-25 -16 -36 -19 -12 -4 -24 -15 -27 -26 -6 -22 -53 -38 -69 -22 -16 16 0 32
30 32 19 0 23 3 13 9 -13 8 -28 6 -131 -22 -85 -24 -108 -34 -119 -55 -6 -11
-31 -32 -56 -46 -25 -15 -64 -50 -86 -79 -23 -29 -48 -56 -56 -61 -8 -4 -21
-22 -29 -40 -8 -17 -18 -38 -23 -46 -5 -8 -26 -49 -47 -90 -20 -41 -44 -86
-54 -100 -9 -14 -22 -41 -29 -61 -6 -20 -31 -58 -54 -86 -37 -43 -66 -89 -140
-218 -35 -62 -50 -102 -68 -175 -9 -41 -28 -103 -41 -137 -21 -58 -22 -64 -7
-79 14 -13 20 -14 38 -3 11 8 23 19 25 25 8 20 218 317 265 374 82 101 125
141 251 235 141 105 225 151 305 166 30 5 79 21 108 34 75 35 199 59 292 58
113 -2 299 -29 385 -56 25 -8 86 -22 135 -31 50 -9 104 -21 121 -27 18 -5 50
-7 72 -3 31 5 49 2 74 -14 18 -11 49 -23 68 -27 19 -4 40 -12 47 -17 6 -5 40
-24 76 -42 92 -48 134 -79 167 -123 37 -51 190 -351 190 -373 0 -9 9 -43 20
-74 14 -41 21 -94 24 -179 3 -67 8 -132 12 -145 5 -17 1 -28 -15 -43 -11 -11
-21 -32 -21 -47 0 -15 -4 -42 -10 -61 -40 -139 -31 -266 28 -390 25 -53 36
-91 38 -130 1 -31 7 -83 13 -116 6 -33 11 -99 11 -147 0 -48 4 -89 9 -92 4 -3
11 -33 15 -66 5 -39 12 -63 22 -67 24 -9 74 -92 74 -123 0 -16 -5 -41 -10 -56
l-11 -27 -27 26 c-35 34 -43 34 -64 -1 -10 -15 -23 -34 -30 -44 -9 -13 -9 -20
1 -32 22 -26 49 -20 54 12 4 26 4 26 12 5 9 -29 13 -29 37 2 34 43 108 30 108
-19 0 -12 5 -28 10 -36 9 -13 14 -11 31 13 13 16 30 27 45 27 34 0 74 28 74
52 0 11 -13 37 -30 58 -33 41 -39 75 -15 84 8 3 15 10 15 16 0 13 71 110 81
110 3 0 18 -9 32 -20 30 -24 41 -25 58 -4 7 9 23 20 36 25 64 24 -18 156 -84
135 -10 -3 -29 -16 -43 -28 -44 -40 -105 -79 -108 -69 -5 14 28 63 81 120 26
29 47 58 47 65 0 6 9 20 21 29 18 16 20 27 17 93 -2 41 0 74 4 74 14 0 30 43
33 89 2 25 9 75 16 111 13 70 14 88 4 137 -5 20 -2 39 6 51 11 15 12 42 8 113
-4 52 -10 107 -14 122 -5 19 -3 33 8 45 24 27 31 127 14 197 -34 134 -73 219
-146 320 -22 32 -41 69 -41 81 0 22 -22 42 -130 122 -10 7 -48 24 -84 37 -37
13 -80 33 -95 44 -16 12 -50 30 -77 41 -29 13 -71 45 -105 81 -33 33 -66 59
-77 59 -20 0 -26 9 -73 101 -10 20 -27 68 -37 106 -28 98 -52 142 -122 212
-58 59 -63 62 -108 61 -68 -2 -152 9 -192 25 -137 54 -171 63 -250 68 -47 4
-125 16 -175 28 -104 25 -229 33 -265 18z m1640 -2813 c0 -8 -4 -17 -9 -21
-12 -7 -24 12 -16 25 9 15 25 12 25 -4z"/>
<path d="M3340 5359 c-25 -4 -70 -6 -100 -3 -31 3 -85 -2 -124 -10 -92 -20
-146 -69 -156 -143 -4 -26 -13 -80 -21 -119 l-13 -72 28 -33 c20 -23 26 -38
21 -53 -4 -12 -8 -34 -9 -51 -1 -30 -1 -30 48 -27 27 1 57 9 66 17 19 17 46
20 55 5 4 -6 19 -9 33 -8 15 1 33 -1 39 -5 21 -13 24 12 3 33 -25 25 -26 62
-1 84 29 26 51 16 70 -29 28 -70 24 -68 125 -60 72 5 96 11 113 27 l23 21 26
-26 c27 -27 94 -39 94 -17 0 6 8 10 19 10 30 0 39 65 25 198 -7 60 -8 63 -58
101 -28 21 -76 62 -106 91 -86 81 -103 87 -200 69z"/>
<path d="M4275 5268 c-22 -18 -43 -37 -47 -43 -4 -7 -27 -24 -52 -40 -49 -31
-61 -51 -72 -121 -4 -27 -13 -63 -21 -82 -14 -35 -4 -72 20 -72 7 0 21 -9 31
-21 12 -15 24 -19 39 -14 69 23 128 12 98 -18 -17 -17 -13 -37 8 -37 10 0 24
7 31 15 11 13 16 13 43 -2 30 -15 32 -15 51 9 25 30 57 48 85 48 14 0 26 -15
44 -53 24 -54 25 -54 78 -60 30 -4 76 -7 103 -7 61 0 133 -38 142 -75 7 -29
25 -31 87 -10 32 11 52 12 78 5 50 -14 81 -12 108 9 l23 18 -36 21 c-43 25
-45 39 -10 52 22 9 24 13 14 25 -13 16 -2 39 28 58 22 15 14 81 -15 121 -56
76 -93 112 -140 136 -26 13 -66 35 -87 48 -26 16 -64 27 -115 33 -124 14 -153
19 -221 39 -89 26 -157 41 -210 47 -39 4 -50 0 -85 -29z m453 -257 c25 -22 28
-31 9 -31 -22 0 -88 35 -81 43 13 13 49 7 72 -12z"/>
<path d="M3360 4784 c-30 -7 -62 -11 -72 -8 -24 7 -68 -6 -68 -21 0 -7 -15
-19 -32 -26 l-33 -14 60 -7 c71 -8 169 12 230 48 l39 23 -28 10 c-15 6 -30 11
-34 10 -4 -1 -32 -7 -62 -15z"/>
<path d="M4367 4694 c6 -15 134 -78 189 -93 62 -17 218 -31 228 -21 13 13 -25
25 -139 45 -55 10 -115 24 -134 32 -18 7 -41 13 -51 13 -10 0 -23 6 -29 14
-15 18 -71 27 -64 10z"/>
<path d="M5577 4396 c-6 -15 1 -26 15 -26 4 0 8 9 8 20 0 23 -15 27 -23 6z"/>
<path d="M3505 4241 c-3 -5 -19 -12 -35 -16 -40 -9 -55 -37 -41 -78 6 -17 19
-39 28 -49 8 -10 21 -41 28 -70 10 -47 15 -54 41 -58 23 -4 30 -11 32 -33 4
-30 24 -35 67 -15 23 10 29 8 65 -27 40 -40 55 -40 55 -2 0 18 7 23 40 25 22
2 44 8 50 13 5 5 21 9 36 9 14 0 46 7 69 15 24 8 75 18 114 22 75 7 142 31
169 61 22 25 49 91 41 103 -5 9 -118 4 -134 -6 -9 -6 -103 39 -139 66 l-31 23
-107 -18 c-60 -10 -115 -19 -123 -19 -52 -2 -82 6 -121 33 -43 29 -92 39 -104
21z"/>
<path d="M5533 4197 c4 -10 7 -25 7 -33 0 -8 9 -14 21 -14 27 0 22 28 -11 49
-23 15 -24 15 -17 -2z"/>
<path d="M5487 4133 c-11 -10 -8 -20 9 -37 11 -12 14 -27 9 -60 -6 -37 -10
-43 -26 -39 -15 4 -19 0 -19 -24 0 -38 -16 -53 -50 -46 -33 6 -81 -17 -124
-61 -17 -18 -43 -37 -56 -41 -14 -4 -43 -18 -66 -30 -34 -20 -51 -23 -106 -20
-46 3 -72 -1 -84 -10 -11 -8 -37 -15 -60 -15 -51 0 -70 -17 -48 -41 20 -22 10
-43 -14 -30 -25 13 -42 2 -42 -26 0 -21 -4 -24 -27 -21 -27 3 -27 2 -24 -52 1
-30 7 -62 12 -72 13 -24 11 -28 -9 -28 -21 0 -44 -38 -63 -104 -10 -35 -22
-54 -42 -65 -20 -12 -29 -27 -33 -53 -4 -21 -12 -39 -18 -40 -6 0 -18 -2 -26
-2 -10 -1 -14 -10 -12 -30 4 -41 -41 -106 -73 -106 -14 0 -28 7 -31 15 -8 19
-30 19 -37 1 -4 -9 2 -17 13 -21 11 -3 22 -20 26 -38 3 -17 12 -40 18 -50 9
-15 6 -23 -22 -48 -18 -16 -41 -29 -51 -29 -22 0 -35 -37 -25 -74 6 -24 3 -25
-43 -28 -48 -3 -48 -3 -45 -36 3 -29 0 -34 -32 -47 -36 -15 -76 -9 -91 14 -11
19 -47 12 -67 -14 -16 -21 -27 -24 -66 -23 -26 2 -80 -1 -119 -6 -72 -8 -73
-8 -82 17 -19 49 -123 89 -137 52 -4 -8 -11 -15 -17 -15 -6 0 -19 -7 -28 -16
-15 -14 -26 -15 -59 -6 -22 5 -49 8 -59 5 -10 -2 -35 7 -57 21 -85 55 -86 56
-79 87 5 23 3 29 -12 31 -10 1 -27 2 -38 3 -11 1 -30 3 -42 4 -16 1 -23 7 -23
21 0 11 -4 28 -9 38 -11 23 -32 82 -37 107 -5 24 40 76 85 100 43 22 39 41
-16 75 -35 23 -42 31 -30 36 15 5 13 12 -14 45 -25 32 -34 37 -45 28 -8 -6
-15 -8 -16 -3 0 5 -2 14 -3 19 -2 6 -3 16 -4 23 -1 7 -16 12 -41 12 -34 0 -47
7 -79 38 -43 42 -75 107 -86 172 -4 25 -12 51 -18 58 -6 7 -13 30 -16 50 -5
31 -11 38 -34 40 -22 3 -27 -1 -27 -17 0 -11 -7 -39 -16 -61 -13 -32 -14 -47
-6 -65 7 -15 8 -26 2 -30 -14 -9 -12 -59 2 -73 9 -9 9 -15 0 -24 -15 -15 -16
-50 -1 -65 6 -6 13 -38 14 -70 5 -97 61 -225 151 -343 23 -30 91 -102 151
-160 72 -69 121 -125 143 -165 19 -33 37 -61 42 -63 8 -4 48 -89 48 -104 0
-11 34 -91 61 -139 23 -44 24 -59 4 -59 -8 0 -15 4 -15 9 0 4 -11 20 -24 34
l-25 26 -6 -28 c-3 -16 -17 -39 -31 -51 -13 -13 -24 -27 -24 -31 0 -5 -12 -34
-27 -66 -18 -39 -27 -76 -28 -113 -1 -30 -7 -68 -15 -85 -7 -16 -20 -46 -29
-65 -8 -19 -15 -57 -14 -85 2 -68 14 -145 22 -145 10 0 10 113 0 126 -6 8 -4
14 6 18 10 3 15 19 15 45 0 22 4 42 9 45 4 3 11 20 15 37 9 45 36 34 53 -21
25 -84 54 -371 54 -554 1 -131 9 -172 38 -181 31 -9 74 -133 106 -300 48 -250
43 -234 98 -292 51 -54 67 -64 67 -40 0 7 11 23 25 35 31 27 32 43 3 39 -17
-1 -24 4 -26 21 -4 25 15 30 24 7 4 -8 12 -15 20 -15 17 0 18 32 2 48 -9 9 -4
12 26 12 33 0 37 -2 26 -15 -19 -23 -1 -18 55 14 64 37 79 55 99 116 28 86 57
149 88 190 13 16 50 66 83 110 33 44 65 85 70 91 13 15 521 538 600 618 86 87
349 376 354 388 2 7 -9 9 -28 6 -35 -5 -57 12 -47 37 7 18 42 20 49 3 4 -10 6
-10 6 0 1 18 41 15 41 -3 0 -14 3 -14 29 0 16 8 35 21 43 29 7 7 78 81 158
162 124 127 151 160 183 226 23 48 37 91 37 115 0 22 4 43 9 48 12 13 33 189
25 209 -3 9 -1 23 6 31 9 10 10 31 6 65 -5 38 -3 56 10 74 17 27 12 78 -10
105 -6 8 -11 48 -12 90 -2 105 -6 123 -32 144 -12 11 -22 24 -21 30 4 31 -1
41 -13 29 -22 -22 -45 -13 -63 26 -9 20 -29 62 -45 93 -25 53 -26 58 -13 92
10 23 23 37 40 42 19 4 23 9 14 18 -14 14 -15 54 -1 62 6 3 10 31 10 61 0 47
-4 58 -27 79 -29 25 -45 30 -56 18z m-2230 -976 c1 -20 -2 -37 -7 -37 -6 0
-10 8 -10 18 0 9 -3 28 -7 41 -4 18 -2 22 8 19 8 -3 15 -20 16 -41z m511 -464
c6 -9 12 -19 12 -23 0 -12 -67 -41 -83 -34 -20 7 -23 54 -5 72 16 16 58 7 76
-15z"/>
<path d="M5851 4047 c-18 -23 -18 -61 1 -65 21 -4 41 32 33 58 -7 23 -18 25
-34 7z"/>
<path d="M5295 3941 c-7 -12 12 -24 25 -16 11 7 4 25 -10 25 -5 0 -11 -4 -15
-9z"/>
<path d="M3247 3815 c-28 -25 -46 -28 -152 -30 -55 0 -66 -31 -39 -107 l19
-53 100 -1 c80 0 112 -5 159 -23 54 -22 64 -23 127 -12 37 6 107 11 156 11
112 0 358 -25 443 -45 36 -8 102 -23 146 -33 73 -17 99 -18 230 -10 126 8 157
13 202 34 46 22 52 28 46 47 -3 12 -8 24 -10 25 -10 12 -141 52 -170 52 -19 0
-52 9 -74 20 -53 27 -103 26 -134 -4 -15 -13 -26 -28 -26 -34 0 -5 -6 -12 -13
-15 -18 -7 -67 3 -67 14 0 5 -19 6 -43 3 -25 -4 -77 1 -122 10 -52 11 -118 15
-187 14 -75 -2 -111 1 -119 10 -7 6 -25 12 -40 12 -15 0 -39 4 -53 10 -14 5
-69 14 -123 19 l-98 10 -45 50 c-51 57 -72 62 -113 26z"/>
<path d="M2930 3815 c0 -8 7 -15 15 -15 8 0 15 7 15 15 0 8 -7 15 -15 15 -8 0
-15 -7 -15 -15z"/>
<path d="M3540 3386 c0 -14 -4 -28 -10 -31 -15 -10 -12 -35 5 -35 8 0 15 -4
15 -9 0 -11 80 -51 101 -51 8 0 19 4 25 9 5 5 46 11 90 13 60 2 87 8 101 20
13 12 29 16 53 12 24 -4 42 0 55 10 20 16 20 16 0 31 -13 11 -39 15 -75 14
-30 0 -84 2 -120 6 -36 3 -91 7 -122 9 -32 1 -63 7 -70 14 -21 21 -48 14 -48
-12z"/>
<path d="M3385 3260 c-8 -14 3 -30 21 -30 8 0 14 9 14 20 0 21 -24 28 -35 10z"/>
<path d="M5827 3063 c-3 -5 1 -33 9 -63 25 -91 29 -225 9 -300 -17 -68 -76
-221 -127 -330 -16 -36 -48 -105 -70 -155 -22 -49 -65 -142 -95 -205 -30 -63
-70 -150 -89 -192 -18 -43 -56 -122 -83 -175 -85 -167 -166 -348 -202 -452
-10 -29 -33 -76 -50 -104 -17 -28 -40 -78 -51 -111 -11 -33 -30 -73 -43 -90
-12 -17 -40 -65 -62 -106 -98 -184 -116 -217 -137 -247 -11 -18 -26 -33 -31
-33 -6 0 -28 23 -48 50 -38 51 -57 62 -57 35 0 -20 41 -84 69 -109 31 -28 24
-51 -90 -278 l-99 -198 1981 0 1982 0 -5 512 -5 512 -34 28 c-18 15 -39 28
-46 28 -7 0 -51 36 -98 79 -77 72 -168 138 -465 339 -52 35 -124 82 -160 103
-36 22 -72 44 -80 49 -77 49 -245 143 -358 200 -146 74 -315 163 -397 210 -27
15 -70 39 -95 52 -182 97 -405 240 -483 309 -24 21 -96 116 -160 211 -248 367
-315 455 -330 431z m-420 -2290 c67 -31 63 -107 -8 -143 -48 -25 -66 -25 -106
0 -27 16 -33 26 -33 52 0 42 8 54 56 83 47 29 47 29 91 8z"/>
<path d="M3009 1999 c-412 -258 -588 -351 -794 -420 -22 -7 -49 -19 -60 -26
-11 -7 -29 -13 -42 -13 -12 0 -24 -4 -27 -9 -3 -5 -18 -12 -33 -16 -29 -7
-136 -55 -238 -108 -33 -17 -104 -53 -157 -80 -77 -38 -115 -65 -176 -125
-236 -232 -402 -654 -419 -1065 l-6 -137 949 0 950 0 32 97 c31 93 95 274 112
318 4 11 27 60 51 108 l43 88 18 -23 c10 -13 30 -49 44 -80 15 -32 30 -58 35
-58 14 0 55 63 78 121 28 71 22 88 -66 177 -37 38 -76 81 -86 96 -10 15 -50
50 -88 77 -186 136 -243 268 -183 426 19 50 13 73 -19 73 -33 0 -57 -30 -57
-71 0 -51 29 -194 40 -197 6 -2 10 -21 10 -42 0 -21 4 -41 9 -44 5 -3 12 -26
15 -51 4 -25 10 -45 14 -45 4 0 7 -14 8 -30 2 -48 35 -101 67 -107 25 -5 27
-9 27 -52 0 -43 -12 -71 -32 -71 -14 0 -53 73 -105 195 -63 149 -68 167 -89
289 -24 145 -18 171 127 481 15 33 40 87 54 120 31 70 56 120 96 192 29 52 37
83 21 83 -5 0 -60 -32 -123 -71z"/>
<path d="M3276 1641 c-9 -14 12 -71 25 -71 14 0 11 44 -4 65 -10 13 -16 15
-21 6z"/>
<path d="M4246 1121 c-25 -33 -46 -67 -46 -75 0 -9 -4 -16 -9 -16 -5 0 -19
-19 -31 -42 -12 -23 -28 -47 -35 -53 -20 -15 -59 -95 -50 -103 4 -4 16 4 27
18 11 14 34 41 52 60 18 19 35 43 39 53 9 23 22 21 34 -5 12 -27 -12 -98 -34
-98 -7 0 -13 -4 -13 -10 0 -5 -12 -16 -27 -24 -16 -9 -49 -35 -75 -59 -41 -37
-48 -50 -48 -81 0 -32 2 -35 15 -24 37 31 56 54 61 75 4 13 10 23 15 23 4 0
31 21 59 48 65 59 87 71 128 72 23 0 32 -5 32 -16 0 -23 -31 -87 -50 -101 -22
-17 -7 -25 34 -17 20 3 41 15 47 25 5 11 17 19 26 19 9 0 24 7 33 15 16 14 18
14 23 1 4 -9 -1 -22 -9 -31 -17 -17 -11 -35 12 -35 8 0 17 -7 21 -15 3 -9 24
-25 47 -37 22 -11 60 -34 84 -50 45 -31 82 -31 82 -1 0 19 -43 99 -105 193
-104 160 -156 237 -177 260 -36 38 -98 90 -108 90 -5 0 -29 -27 -54 -59z"/>
<path d="M4174 705 c-27 -19 -54 -35 -60 -35 -35 0 -81 -108 -53 -125 5 -4 31
13 57 36 46 43 132 142 132 153 0 15 -31 3 -76 -29z"/>
<path d="M3897 634 c-10 -11 3 -24 23 -24 10 0 22 -9 25 -20 7 -23 35 -27 35
-5 0 9 -11 20 -24 25 -13 5 -27 14 -31 19 -7 12 -19 14 -28 5z"/>
</g>
</svg>
